<?xml version="1.0" encoding="UTF-8" standalone="no"?>
<svg
   shape-rendering="geometricPrecision"
   text-rendering="geometricPrecision"
   image-rendering="optimizeQuality"
   fill-rule="evenodd"
   clip-rule="evenodd"
   viewBox="0 0 512 509.64"
   version="1.1"
   id="svg1"
   sodipodi:docname="linkedin-square-icon.svg"
   inkscape:version="1.3.2 (091e20e, 2023-11-25, custom)"
   xmlns:inkscape="http://www.inkscape.org/namespaces/inkscape"
   xmlns:sodipodi="http://sodipodi.sourceforge.net/DTD/sodipodi-0.dtd"
   xmlns="http://www.w3.org/2000/svg"
   xmlns:svg="http://www.w3.org/2000/svg">
  <defs
     id="defs1" />
  <sodipodi:namedview
     id="namedview1"
     pagecolor="#ffffff"
     bordercolor="#000000"
     borderopacity="0.25"
     inkscape:showpageshadow="2"
     inkscape:pageopacity="0.0"
     inkscape:pagecheckerboard="0"
     inkscape:deskcolor="#d1d1d1"
     inkscape:zoom="2.5404452"
     inkscape:cx="191.69869"
     inkscape:cy="277.51042"
     inkscape:window-width="3840"
     inkscape:window-height="2066"
     inkscape:window-x="-11"
     inkscape:window-y="-11"
     inkscape:window-maximized="1"
     inkscape:current-layer="svg1" />
  <rect
     width="512"
     height="509.64"
     rx="115.61"
     ry="115.61"
     id="rect1"
     style="fill:#3b2d24;fill-opacity:1" />
  <path
     fill="#3b2d24"
     d="M204.97 197.54h64.69v33.16h.94c9.01-16.16 31.04-33.16 63.89-33.16 68.31 0 80.94 42.51 80.94 97.81v116.92h-67.46l-.01-104.13c0-23.81-.49-54.45-35.08-54.45-35.12 0-40.51 25.91-40.51 52.72v105.86h-67.4V197.54zm-38.23-65.09c0 19.36-15.72 35.08-35.08 35.08-19.37 0-35.09-15.72-35.09-35.08 0-19.37 15.72-35.08 35.09-35.08 19.36 0 35.08 15.71 35.08 35.08zm-70.17 65.09h70.17v214.73H96.57V197.54z"
     id="path1"
     style="fill:#cc925c;fill-opacity:1.0" />
</svg>
